<?xml version="1.0" encoding="UTF-8" standalone="no"?>
<!DOCTYPE svg PUBLIC "-//W3C//DTD SVG 1.1//EN" "http://www.w3.org/Graphics/SVG/1.1/DTD/svg11.dtd">
<svg width="100%" height="100%" viewBox="0 0 2667 317" version="1.1" xmlns="http://www.w3.org/2000/svg" xmlns:xlink="http://www.w3.org/1999/xlink" xml:space="preserve" xmlns:serif="http://www.serif.com/" style="fill-rule:evenodd;clip-rule:evenodd;stroke-linejoin:round;stroke-miterlimit:2;">
    <g transform="matrix(1,0,0,1,-1041.08,-647.986)">
        <g transform="matrix(8.33333,0,0,8.33333,0,0)">
            <g transform="matrix(1,0,0,1,215.32,94.3216)">
                <path d="M0,-1.227C0.964,-0.672 1.906,0.263 2.827,1.577C3.747,2.892 4.498,4.156 5.083,5.368C5.667,6.581 6.404,7.669 7.296,8.632C8.187,9.597 9.144,10.079 10.166,10.079C10.429,10.079 10.561,10.21 10.561,10.473L9.377,14.942C9.377,15.205 9.246,15.336 8.983,15.336C7.376,15.336 5.974,14.935 4.776,14.131C3.578,13.329 2.578,12.285 1.775,10.999C0.971,9.713 0.219,8.392 -0.482,7.033C-1.183,5.674 -2.06,4.302 -3.111,2.914C-4.163,1.527 -5.317,0.454 -6.573,-0.307L-6.573,14.329C-6.573,14.592 -6.704,14.723 -6.967,14.723L-11.656,14.723C-11.918,14.723 -12.05,14.592 -12.05,14.329L-12.05,-15.424C-12.05,-15.687 -11.918,-15.818 -11.656,-15.818L-6.967,-15.818C-6.704,-15.818 -6.573,-15.687 -6.573,-15.424L-6.573,-1.621C-5.317,-2.381 -4.17,-3.425 -3.133,-4.754C-2.096,-6.083 -1.234,-7.398 -0.548,-8.698C0.139,-9.998 0.869,-11.254 1.644,-12.466C2.417,-13.679 3.396,-14.665 4.579,-15.424C5.762,-16.184 7.157,-16.563 8.764,-16.563C9.027,-16.563 9.158,-16.432 9.158,-16.169L10.341,-11.787C10.341,-11.524 10.21,-11.393 9.947,-11.393C9.012,-11.393 8.179,-11.123 7.449,-10.582C6.719,-10.041 6.091,-9.348 5.565,-8.501C5.039,-7.653 4.528,-6.784 4.032,-5.894C3.534,-5.002 2.943,-4.111 2.257,-3.221C1.57,-2.33 0.818,-1.665 0,-1.227" style="fill:rgb(15,36,112);fill-rule:nonzero;"/>
            </g>
        </g>
        <g transform="matrix(8.33333,0,0,8.33333,0,0)">
            <g transform="matrix(1,0,0,1,257.299,108.65)">
                <path d="M0,-29.753L0,0C0,0.263 -0.133,0.394 -0.395,0.394L-5.083,0.394C-5.347,0.394 -5.478,0.263 -5.478,0L-5.478,-13.233L-17.791,-13.233L-17.791,0C-17.791,0.263 -17.922,0.394 -18.185,0.394L-22.874,0.394C-23.137,0.394 -23.269,0.263 -23.269,0L-23.269,-29.753C-23.269,-30.016 -23.137,-30.147 -22.874,-30.147L-18.185,-30.147C-17.922,-30.147 -17.791,-30.016 -17.791,-29.753L-17.791,-18.273L-5.478,-18.273L-5.478,-29.753C-5.478,-30.016 -5.347,-30.147 -5.083,-30.147L-0.395,-30.147C-0.133,-30.147 0,-30.016 0,-29.753" style="fill:rgb(15,36,112);fill-rule:nonzero;"/>
            </g>
        </g>
        <g transform="matrix(8.33333,0,0,8.33333,0,0)">
            <g transform="matrix(1,0,0,1,273.861,90.115)">
                <path d="M0,7.318L9.947,-11.218C10.064,-11.481 10.298,-11.612 10.648,-11.612L16.433,-11.612C16.637,-11.612 16.768,-11.481 16.827,-11.218L16.827,18.536C16.827,18.798 16.695,18.93 16.433,18.93L11.744,18.93C11.481,18.93 11.349,18.798 11.349,18.536L11.349,0.35L11.656,-4.294L9.816,0L-0.131,18.536C-0.277,18.798 -0.511,18.93 -0.832,18.93L-6.617,18.93C-6.821,18.93 -6.953,18.798 -7.011,18.536L-7.011,-11.218C-7.011,-11.481 -6.879,-11.612 -6.617,-11.612L-1.928,-11.612C-1.665,-11.612 -1.533,-11.481 -1.533,-11.218L-1.533,7.011L-1.84,11.743L0,7.318Z" style="fill:rgb(15,36,112);fill-rule:nonzero;"/>
            </g>
        </g>
        <g transform="matrix(8.33333,0,0,8.33333,0,0)">
            <g transform="matrix(1,0,0,1,318.688,104.006)">
                <path d="M0,-20.464L-12.97,-20.464L-12.97,4.645C-12.97,4.908 -13.102,5.039 -13.365,5.039L-18.054,5.039C-18.316,5.039 -18.448,4.908 -18.448,4.645L-18.448,-25.109C-18.448,-25.372 -18.316,-25.503 -18.054,-25.503L0,-25.503C0.263,-25.503 0.394,-25.372 0.394,-25.109L0.394,-20.858C0.394,-20.595 0.263,-20.464 0,-20.464" style="fill:rgb(15,36,112);fill-rule:nonzero;"/>
            </g>
        </g>
        <g transform="matrix(8.33333,0,0,8.33333,0,0)">
            <g transform="matrix(1,0,0,1,337.311,91.2256)">
                <path d="M0,5.725L-3.461,-5.317L-4.294,-9.217L-5.126,-5.317L-8.631,5.725L0,5.725ZM1.402,10.327L-10.034,10.327L-12.444,18.038C-12.502,18.33 -12.678,18.447 -12.97,18.389L-17.527,17.293C-17.79,17.235 -17.878,17.09 -17.79,16.855L-8.237,-12.284C-8.179,-12.576 -8.019,-12.722 -7.755,-12.722L-0.788,-12.722C-0.497,-12.722 -0.321,-12.576 -0.262,-12.284L9.29,16.811C9.378,17.074 9.29,17.235 9.027,17.293L4.426,18.389C4.105,18.447 3.915,18.33 3.856,18.038L1.402,10.327Z" style="fill:rgb(15,36,112);fill-rule:nonzero;"/>
            </g>
        </g>
        <g transform="matrix(8.33333,0,0,8.33333,0,0)">
            <g transform="matrix(1,0,0,1,358.826,92.0868)">
                <path d="M0,3.374L0,12.357L8.413,12.357C9.553,12.357 10.333,12.072 10.757,11.502C11.18,10.933 11.393,9.771 11.393,8.019C11.393,6.238 11.136,5.017 10.626,4.36C10.114,3.703 9.318,3.374 8.237,3.374L0,3.374ZM0,-8.983L0,-1.227L8.149,-1.227C9.172,-1.227 9.873,-1.497 10.253,-2.038C10.633,-2.578 10.823,-3.607 10.823,-5.127C10.823,-6.733 10.64,-7.778 10.275,-8.26C9.91,-8.742 9.202,-8.983 8.149,-8.983L0,-8.983ZM8.632,16.958L-5.083,16.958C-5.346,16.958 -5.478,16.827 -5.478,16.564L-5.478,-13.189C-5.478,-13.453 -5.346,-13.584 -5.083,-13.584L8.369,-13.584C13.861,-13.584 16.607,-11.13 16.607,-6.222C16.607,-4.119 16.096,-2.468 15.074,-1.271C14.051,-0.073 12.341,0.643 9.947,0.876C14.825,1.11 17.264,3.696 17.264,8.632C17.264,11.496 16.482,13.599 14.92,14.942C13.356,16.286 11.261,16.958 8.632,16.958" style="fill:rgb(15,36,112);fill-rule:nonzero;"/>
            </g>
        </g>
        <g transform="matrix(8.33333,0,0,8.33333,0,0)">
            <g transform="matrix(1,0,0,1,395.853,82.9287)">
                <path d="M0,21.559C1.255,21.559 2.241,21.486 2.958,21.34C3.673,21.194 4.322,20.931 4.907,20.551C5.491,20.172 5.915,19.551 6.178,18.689C6.441,17.828 6.638,16.768 6.77,15.512C6.9,14.256 6.967,12.605 6.967,10.56C6.967,7.318 6.77,4.974 6.375,3.527C5.98,2.081 5.33,1.133 4.425,0.679C3.519,0.226 2.044,0 0,0C-1.578,0 -2.776,0.095 -3.594,0.285C-4.412,0.475 -5.113,0.957 -5.697,1.731C-6.281,2.505 -6.654,3.557 -6.814,4.886C-6.975,6.215 -7.056,8.106 -7.056,10.56C-7.056,13.131 -6.975,15.103 -6.814,16.476C-6.654,17.85 -6.281,18.937 -5.697,19.741C-5.113,20.544 -4.412,21.048 -3.594,21.252C-2.776,21.457 -1.578,21.559 0,21.559M-5.851,-4.491C-4.288,-4.944 -2.352,-5.17 -0.044,-5.17C2.264,-5.17 4.199,-4.944 5.762,-4.491C7.324,-4.039 8.682,-3.235 9.836,-2.081C10.99,-0.927 11.831,0.679 12.356,2.739C12.882,4.798 13.146,7.391 13.146,10.517C13.146,14.752 12.641,18.068 11.633,20.464C10.626,22.859 9.201,24.502 7.361,25.393C5.521,26.284 3.052,26.729 -0.044,26.729C-3.141,26.729 -5.609,26.284 -7.45,25.393C-9.29,24.502 -10.714,22.859 -11.722,20.464C-12.73,18.068 -13.234,14.752 -13.234,10.517C-13.234,7.391 -12.971,4.798 -12.445,2.739C-11.919,0.679 -11.08,-0.927 -9.925,-2.081C-8.772,-3.235 -7.414,-4.039 -5.851,-4.491" style="fill:rgb(15,36,112);fill-rule:nonzero;"/>
            </g>
        </g>
        <g transform="matrix(8.33333,0,0,8.33333,0,0)">
            <g transform="matrix(1,0,0,1,426.001,110.667)">
                <path d="M0,-27.125C-0.118,-18.799 -1.402,-11.876 -3.856,-6.354L7.799,-6.354L7.799,-27.125L0,-27.125ZM13.452,-1.622L-8.282,-1.622L-8.282,4.644C-8.282,4.907 -8.414,5.039 -8.676,5.039L-12.27,5.039C-12.533,5.039 -12.665,4.907 -12.665,4.644L-13.759,-5.96C-13.759,-6.223 -13.628,-6.354 -13.365,-6.354L-8.808,-6.354C-7.406,-10.006 -6.486,-13.672 -6.048,-17.353C-5.609,-21.034 -5.39,-25.839 -5.39,-31.77C-5.39,-32.033 -5.258,-32.164 -4.996,-32.164L12.926,-32.164C13.189,-32.164 13.321,-32.033 13.321,-31.77L13.321,-6.354L18.536,-6.354C18.798,-6.354 18.93,-6.223 18.93,-5.96L17.834,4.644C17.834,4.907 17.702,5.039 17.439,5.039L13.846,5.039C13.583,5.039 13.452,4.907 13.452,4.644L13.452,-1.622Z" style="fill:rgb(15,36,112);fill-rule:nonzero;"/>
            </g>
        </g>
        <g transform="matrix(8.33333,0,0,8.33333,0,0)">
            <g transform="matrix(1,0,0,1,192.473,108.743)">
                <path d="M0,-18.429C-1.716,-18.595 -3.487,-18.667 -5.302,-18.632C-14.824,-18.444 -22.763,-16.241 -27.773,-13.043C-30.472,-11.321 -32.476,-10.162 -33.532,-8.193C-34.588,-10.162 -36.592,-11.321 -39.291,-13.043C-44.302,-16.241 -52.24,-18.444 -61.763,-18.632C-63.577,-18.667 -65.349,-18.595 -67.064,-18.429C-67.443,-18.392 -67.659,-17.979 -67.479,-17.646L-65.234,-13.498C-64.833,-12.758 -64.065,-12.288 -63.22,-12.272C-62.636,-12.262 -62.048,-12.24 -61.454,-12.202C-51.949,-11.607 -44.113,-9.066 -39.246,-5.656C-36.546,-3.765 -34.571,-1.974 -33.633,0.147C-33.593,0.238 -33.472,0.238 -33.431,0.147C-32.493,-1.974 -30.518,-3.765 -27.819,-5.656C-22.951,-9.066 -15.116,-11.607 -5.61,-12.202C-5.016,-12.24 -4.428,-12.262 -3.844,-12.272C-3,-12.288 -2.231,-12.758 -1.831,-13.498L0.414,-17.646C0.594,-17.979 0.378,-18.392 0,-18.429" style="fill:rgb(214,164,124);fill-rule:nonzero;"/>
            </g>
        </g>
        <g transform="matrix(8.33333,0,0,8.33333,0,0)">
            <g transform="matrix(1,0,0,1,191.936,99.8081)">
                <path d="M0,-14.13C-0.045,-14.138 -0.095,-14.14 -0.14,-14.143C-1.769,-14.217 -3.389,-14.177 -4.991,-14.039C-6.593,-13.892 -8.172,-13.632 -9.728,-13.304C-12.835,-12.626 -15.84,-11.63 -18.711,-10.373C-21.585,-9.122 -24.337,-7.626 -26.908,-5.875C-28.189,-4.994 -29.435,-4.061 -30.577,-3.008C-31.151,-2.486 -31.693,-1.927 -32.185,-1.328C-32.487,-0.943 -32.798,-0.529 -32.995,-0.075C-33.192,-0.529 -33.503,-0.943 -33.805,-1.328C-34.297,-1.927 -34.839,-2.486 -35.413,-3.008C-36.555,-4.061 -37.801,-4.994 -39.082,-5.875C-41.653,-7.626 -44.405,-9.122 -47.279,-10.373C-50.15,-11.63 -53.155,-12.626 -56.263,-13.304C-57.818,-13.632 -59.397,-13.892 -60.999,-14.039C-62.601,-14.177 -64.221,-14.217 -65.85,-14.143C-65.896,-14.14 -65.945,-14.138 -65.99,-14.13C-66.208,-14.09 -66.161,-13.922 -66.161,-13.922L-65.07,-11.162C-65.034,-11.072 -64.943,-11.018 -64.846,-11.028C-63.623,-11.163 -62.386,-11.234 -61.14,-11.234C-59.657,-11.228 -58.167,-11.114 -56.679,-10.934C-53.705,-10.55 -50.745,-9.852 -47.867,-8.878C-44.986,-7.912 -42.176,-6.689 -39.513,-5.195C-38.185,-4.444 -36.883,-3.635 -35.675,-2.702C-35.068,-2.24 -34.491,-1.74 -33.958,-1.197C-33.596,-0.809 -33.224,-0.394 -32.995,0.087C-32.766,-0.394 -32.395,-0.809 -32.032,-1.197C-31.499,-1.74 -30.922,-2.24 -30.315,-2.702C-29.107,-3.635 -27.805,-4.444 -26.477,-5.195C-23.814,-6.689 -21.004,-7.912 -18.123,-8.878C-15.246,-9.852 -12.285,-10.55 -9.312,-10.934C-7.823,-11.114 -6.333,-11.228 -4.85,-11.234C-3.604,-11.234 -2.367,-11.163 -1.145,-11.028C-1.047,-11.018 -0.956,-11.072 -0.92,-11.162L0.171,-13.922C0.171,-13.922 0.217,-14.09 0,-14.13" style="fill:rgb(214,164,124);fill-rule:nonzero;"/>
            </g>
        </g>
        <g transform="matrix(8.33333,0,0,8.33333,0,0)">
            <g transform="matrix(1,0,0,1,187.295,99.3526)">
                <path d="M0,-18.423C-0.048,-18.415 -0.1,-18.413 -0.147,-18.405C-1.669,-18.156 -3.163,-17.813 -4.624,-17.39C-6.083,-16.957 -7.504,-16.437 -8.894,-15.86C-11.665,-14.687 -14.297,-13.259 -16.771,-11.621C-19.249,-9.989 -21.58,-8.157 -23.709,-6.123C-24.77,-5.101 -25.788,-4.036 -26.694,-2.878C-27.15,-2.302 -27.572,-1.697 -27.941,-1.063C-28.088,-0.797 -28.235,-0.518 -28.354,-0.23C-28.472,-0.518 -28.619,-0.797 -28.766,-1.063C-29.135,-1.697 -29.557,-2.302 -30.013,-2.878C-30.919,-4.036 -31.937,-5.101 -32.998,-6.123C-35.127,-8.157 -37.458,-9.989 -39.936,-11.621C-42.41,-13.259 -45.042,-14.687 -47.813,-15.86C-49.203,-16.437 -50.625,-16.957 -52.083,-17.39C-53.544,-17.813 -55.038,-18.156 -56.56,-18.405C-56.607,-18.413 -56.659,-18.415 -56.707,-18.423C-56.928,-18.46 -56.897,-18.21 -56.897,-18.21L-56.089,-15.51C-56.018,-15.274 -55.812,-15.104 -55.564,-15.077C-54.632,-14.976 -53.7,-14.845 -52.771,-14.666C-51.39,-14.391 -50.02,-14.028 -48.663,-13.606C-45.954,-12.74 -43.306,-11.609 -40.772,-10.247C-38.234,-8.892 -35.798,-7.318 -33.534,-5.522C-32.406,-4.62 -31.312,-3.668 -30.321,-2.618C-29.822,-2.095 -29.356,-1.543 -28.938,-0.957C-28.725,-0.643 -28.51,-0.313 -28.354,0.037C-28.197,-0.313 -27.982,-0.643 -27.769,-0.957C-27.351,-1.543 -26.885,-2.095 -26.386,-2.618C-25.396,-3.668 -24.301,-4.62 -23.173,-5.522C-20.909,-7.318 -18.473,-8.892 -15.935,-10.247C-13.401,-11.609 -10.753,-12.74 -8.044,-13.606C-6.687,-14.028 -5.317,-14.391 -3.937,-14.666C-3.007,-14.845 -2.075,-14.976 -1.143,-15.077C-0.896,-15.104 -0.689,-15.274 -0.618,-15.51L0.19,-18.21C0.19,-18.21 0.221,-18.46 0,-18.423" style="fill:rgb(214,164,124);fill-rule:nonzero;"/>
            </g>
        </g>
        <g transform="matrix(8.33333,0,0,8.33333,0,0)">
            <g transform="matrix(1,0,0,1,181.69,98.4449)">
                <path d="M0,-20.634C-0.049,-20.613 -0.103,-20.601 -0.151,-20.581C-1.468,-20.049 -2.749,-19.453 -3.993,-18.802C-5.229,-18.138 -6.43,-17.424 -7.595,-16.663C-9.914,-15.127 -12.088,-13.412 -14.101,-11.543C-16.118,-9.678 -17.979,-7.658 -19.636,-5.49C-20.458,-4.403 -21.235,-3.279 -21.897,-2.087C-22.22,-1.506 -22.511,-0.905 -22.749,-0.285C-22.986,-0.905 -23.277,-1.506 -23.6,-2.087C-24.262,-3.279 -25.039,-4.403 -25.861,-5.49C-27.519,-7.658 -29.379,-9.678 -31.396,-11.543C-33.409,-13.412 -35.583,-15.127 -37.902,-16.663C-39.067,-17.424 -40.268,-18.138 -41.504,-18.802C-42.749,-19.453 -44.029,-20.049 -45.346,-20.581C-45.394,-20.601 -45.448,-20.613 -45.497,-20.634C-45.999,-20.846 -45.855,-20.349 -45.855,-20.349L-45.394,-17.501C-45.365,-17.321 -45.238,-17.174 -45.063,-17.116C-44.277,-16.856 -43.495,-16.577 -42.721,-16.266C-41.512,-15.763 -40.32,-15.206 -39.148,-14.598C-36.815,-13.364 -34.567,-11.931 -32.444,-10.319C-30.317,-8.714 -28.312,-6.93 -26.484,-4.977C-25.576,-3.997 -24.708,-2.974 -23.945,-1.877C-23.564,-1.328 -23.213,-0.759 -22.917,-0.163C-22.858,-0.04 -22.803,0.086 -22.749,0.212C-22.694,0.086 -22.639,-0.04 -22.581,-0.163C-22.284,-0.759 -21.933,-1.328 -21.552,-1.877C-20.79,-2.974 -19.921,-3.997 -19.013,-4.977C-17.185,-6.93 -15.18,-8.714 -13.053,-10.319C-10.93,-11.931 -8.683,-13.364 -6.349,-14.598C-5.177,-15.206 -3.985,-15.763 -2.776,-16.266C-2.002,-16.577 -1.22,-16.856 -0.434,-17.116C-0.259,-17.174 -0.132,-17.321 -0.103,-17.501L0.358,-20.349C0.358,-20.349 0.501,-20.846 0,-20.634" style="fill:rgb(214,164,124);fill-rule:nonzero;"/>
            </g>
        </g>
    </g>
</svg>
