<?xml version="1.0" encoding="UTF-8" standalone="no"?>
<!DOCTYPE svg PUBLIC "-//W3C//DTD SVG 1.1//EN" "http://www.w3.org/Graphics/SVG/1.1/DTD/svg11.dtd">
<svg width="100%" height="100%" viewBox="0 0 390 1405" version="1.1" xmlns="http://www.w3.org/2000/svg" xmlns:xlink="http://www.w3.org/1999/xlink" xml:space="preserve" xmlns:serif="http://www.serif.com/" style="fill-rule:evenodd;clip-rule:evenodd;stroke-linejoin:round;stroke-miterlimit:2;">
    <g transform="matrix(1,0,0,1,-2721.72,-3611)">
        <g transform="matrix(8.33333,0,0,8.33333,0,0)">
            <g transform="matrix(1,0,0,1,327.13,600.686)">
                <path d="M0,-166.18C-0.41,-161.929 -0.59,-157.538 -0.502,-153.042C-0.038,-129.447 5.421,-109.776 13.345,-97.36C17.613,-90.672 20.484,-85.706 25.365,-83.089C20.484,-80.472 17.613,-75.507 13.345,-68.819C5.421,-56.403 -0.038,-36.733 -0.502,-13.137C-0.59,-8.64 -0.41,-4.25 0,0.002C0.09,0.939 1.114,1.473 1.939,1.027L12.217,-4.534C14.052,-5.528 15.217,-7.431 15.256,-9.524C15.283,-10.971 15.336,-12.429 15.429,-13.901C16.904,-37.454 23.201,-56.87 31.65,-68.932C36.335,-75.62 40.774,-80.514 46.029,-82.838C46.256,-82.939 46.256,-83.24 46.029,-83.34C40.774,-85.664 36.335,-90.559 31.65,-97.247C23.201,-109.309 16.904,-128.724 15.429,-152.278C15.336,-153.75 15.283,-155.207 15.256,-156.655C15.217,-158.747 14.052,-160.652 12.217,-161.644L1.939,-167.205C1.114,-167.653 0.09,-167.117 0,-166.18" style="fill:rgb(255,233,201);fill-rule:nonzero;"/>
            </g>
        </g>
    </g>
</svg>
