<?xml version="1.0" encoding="UTF-8" standalone="no"?>
<!DOCTYPE svg PUBLIC "-//W3C//DTD SVG 1.1//EN" "http://www.w3.org/Graphics/SVG/1.1/DTD/svg11.dtd">
<svg width="100%" height="100%" viewBox="0 0 157 167" version="1.1" xmlns="http://www.w3.org/2000/svg" xmlns:xlink="http://www.w3.org/1999/xlink" xml:space="preserve" xmlns:serif="http://www.serif.com/" style="fill-rule:evenodd;clip-rule:evenodd;stroke-linejoin:round;stroke-miterlimit:2;">
    <g transform="matrix(1,0,0,1,-1957.85,-244.484)">
        <g transform="matrix(8.33333,0,0,8.33333,0,0)">
            <g transform="matrix(1,0,0,1,239.661,47.207)">
                <path d="M0,-15.789L0.051,-15.764C0.226,-15.666 0.386,-15.481 0.521,-15.312C0.727,-15.054 0.92,-14.745 1.113,-14.437L1.335,-14.087C1.517,-13.805 1.649,-13.566 1.752,-13.335C1.854,-13.104 1.909,-12.92 1.926,-12.755C1.95,-12.495 1.868,-12.369 1.786,-12.282C1.687,-12.177 1.573,-12.077 1.467,-11.983C1.372,-11.899 1.278,-11.816 1.185,-11.727C1.088,-11.636 0.979,-11.562 0.847,-11.469C0.759,-11.407 0.672,-11.344 0.584,-11.276C0.135,-10.928 -0.16,-10.497 -0.294,-9.995C-0.391,-9.629 -0.401,-9.252 -0.326,-8.841C-0.24,-8.363 -0.064,-7.907 0.241,-7.36C0.545,-6.817 0.919,-6.286 1.453,-5.639C1.944,-5.044 2.408,-4.541 2.87,-4.103C3.264,-3.728 3.803,-3.252 4.473,-2.898C4.969,-2.635 5.437,-2.506 5.937,-2.502C6.503,-2.517 6.997,-2.698 7.406,-3.043C7.515,-3.134 7.615,-3.235 7.716,-3.339L7.842,-3.464C7.964,-3.581 8.086,-3.698 8.254,-3.845C8.409,-3.98 8.568,-4.121 8.733,-4.246C8.816,-4.309 8.906,-4.343 9.018,-4.352C9.132,-4.363 9.255,-4.341 9.403,-4.281C9.647,-4.185 9.893,-4.039 10.131,-3.846C10.452,-3.586 10.786,-3.305 11.149,-2.985C11.327,-2.829 11.508,-2.655 11.686,-2.469C11.828,-2.32 11.922,-2.181 11.957,-1.959C11.882,-1.869 11.792,-1.791 11.687,-1.694L11.027,-1.096C10.794,-0.879 10.523,-0.685 10.226,-0.517C9.835,-0.299 9.408,-0.141 8.958,-0.045C8.662,0.016 8.343,0.047 8.02,0.05C7.354,0.047 6.707,-0.072 6.039,-0.315C5.274,-0.594 4.517,-1.013 3.721,-1.597C3.27,-1.927 2.82,-2.302 2.348,-2.742C1.865,-3.192 1.385,-3.692 0.876,-4.27C0.411,-4.799 0.002,-5.305 -0.375,-5.819C-0.774,-6.363 -1.111,-6.879 -1.405,-7.397C-1.814,-8.119 -2.116,-8.799 -2.327,-9.479C-2.451,-9.881 -2.538,-10.276 -2.587,-10.656C-2.638,-11.041 -2.65,-11.393 -2.628,-11.733C-2.59,-12.301 -2.467,-12.831 -2.264,-13.31C-2.097,-13.705 -1.876,-14.067 -1.608,-14.392C-1.404,-14.638 -1.164,-14.867 -0.875,-15.089C-0.719,-15.21 -0.57,-15.342 -0.373,-15.521L-0.248,-15.632C-0.14,-15.725 -0.057,-15.778 0,-15.789M13.925,-2.761C13.774,-3.171 13.533,-3.546 13.189,-3.907C12.969,-4.138 12.743,-4.354 12.522,-4.548C12.136,-4.887 11.781,-5.187 11.438,-5.464C11.037,-5.789 10.609,-6.042 10.168,-6.216C9.715,-6.396 9.278,-6.465 8.836,-6.424C8.334,-6.381 7.877,-6.206 7.477,-5.903C7.271,-5.748 7.075,-5.579 6.847,-5.378C6.695,-5.247 6.549,-5.106 6.391,-4.955L6.224,-4.788C6.172,-4.735 6.12,-4.681 6.062,-4.632C6.014,-4.59 5.983,-4.582 5.933,-4.582C5.856,-4.573 5.714,-4.595 5.444,-4.739C5.002,-4.971 4.602,-5.327 4.303,-5.61C3.9,-5.993 3.493,-6.435 3.058,-6.963C2.607,-7.508 2.299,-7.944 2.058,-8.376C1.868,-8.714 1.765,-8.973 1.721,-9.214C1.702,-9.316 1.7,-9.399 1.718,-9.463C1.723,-9.484 1.737,-9.538 1.857,-9.631C1.925,-9.683 1.994,-9.732 2.064,-9.782C2.252,-9.914 2.443,-10.054 2.622,-10.224C2.688,-10.287 2.758,-10.349 2.851,-10.429C3.002,-10.564 3.158,-10.704 3.301,-10.855C3.834,-11.423 4.074,-12.149 3.995,-12.956C3.958,-13.349 3.849,-13.738 3.652,-14.18C3.505,-14.514 3.323,-14.843 3.085,-15.211L2.87,-15.553C2.651,-15.9 2.426,-16.259 2.147,-16.608C1.903,-16.914 1.56,-17.303 1.066,-17.58C0.619,-17.831 0.131,-17.92 -0.343,-17.841C-0.792,-17.765 -1.195,-17.563 -1.608,-17.205L-1.826,-17.012C-1.928,-16.92 -2.033,-16.823 -2.143,-16.739C-2.556,-16.42 -2.906,-16.086 -3.212,-15.716C-3.608,-15.237 -3.934,-14.701 -4.178,-14.124C-4.473,-13.431 -4.649,-12.674 -4.703,-11.872C-4.735,-11.395 -4.718,-10.91 -4.65,-10.389C-4.587,-9.892 -4.474,-9.379 -4.314,-8.865C-4.06,-8.041 -3.699,-7.225 -3.215,-6.37C-2.883,-5.784 -2.502,-5.202 -2.053,-4.588C-1.639,-4.025 -1.192,-3.472 -0.687,-2.897C-0.137,-2.269 0.393,-1.722 0.929,-1.221C1.46,-0.726 1.971,-0.299 2.49,0.082C3.446,0.782 4.373,1.292 5.327,1.639C6.224,1.965 7.101,2.126 8.011,2.131L8.024,2.131C8.497,2.127 8.954,2.08 9.383,1.99C10.045,1.853 10.67,1.619 11.242,1.297C11.68,1.052 12.082,0.761 12.442,0.429L13.09,-0.159C13.247,-0.302 13.407,-0.452 13.55,-0.621C14.063,-1.233 14.2,-2.014 13.925,-2.761" style="fill:rgb(214,164,124);fill-rule:nonzero;"/>
            </g>
        </g>
    </g>
</svg>
