<?xml version="1.0" encoding="UTF-8" standalone="no"?>
<!DOCTYPE svg PUBLIC "-//W3C//DTD SVG 1.1//EN" "http://www.w3.org/Graphics/SVG/1.1/DTD/svg11.dtd">
<svg width="100%" height="100%" viewBox="0 0 542 582" version="1.1" xmlns="http://www.w3.org/2000/svg" xmlns:xlink="http://www.w3.org/1999/xlink" xml:space="preserve" xmlns:serif="http://www.serif.com/" style="fill-rule:evenodd;clip-rule:evenodd;stroke-linejoin:round;stroke-miterlimit:2;">
    <g transform="matrix(1,0,0,1,-1812.5,-7351.81)">
        <g transform="matrix(8.33333,0,0,8.33333,0,0)">
            <g transform="matrix(1,0,0,1,260.201,913.161)">
                <path d="M0,-28.26C-7.791,-28.26 -14.129,-21.921 -14.129,-14.13C-14.129,-6.339 -7.791,0 0,0C7.792,0 14.13,-6.339 14.13,-14.13C14.13,-21.921 7.792,-28.26 0,-28.26M0,2.684C-9.271,2.684 -16.813,-4.86 -16.813,-14.13C-16.813,-23.401 -9.271,-30.944 0,-30.944C9.271,-30.944 16.814,-23.401 16.814,-14.13C16.814,-4.86 9.271,2.684 0,2.684" style="fill:rgb(15,36,112);fill-rule:nonzero;"/>
            </g>
        </g>
        <g transform="matrix(8.33333,0,0,8.33333,0,0)">
            <g transform="matrix(1,0,0,1,260.201,897.687)">
                <path d="M0,12.786C-0.741,12.786 -1.342,12.184 -1.342,11.443C-1.342,10.702 -0.741,10.101 0,10.101C4.831,10.101 8.76,6.172 8.76,1.343C8.76,0.601 9.361,0 10.102,0C10.843,0 11.444,0.601 11.444,1.343C11.444,7.652 6.311,12.786 0,12.786" style="fill:rgb(15,36,112);fill-rule:nonzero;"/>
            </g>
        </g>
        <g transform="matrix(8.33333,0,0,8.33333,0,0)">
            <g transform="matrix(1,0,0,1,280.921,900.847)">
                <path d="M0,51.15C-0.741,51.15 -1.342,50.549 -1.342,49.808L-1.342,1.341C-1.342,0.6 -0.741,0 0,0C0.741,0 1.342,0.6 1.342,1.341L1.342,49.808C1.342,50.549 0.741,51.15 0,51.15" style="fill:rgb(15,36,112);fill-rule:nonzero;"/>
            </g>
        </g>
        <g transform="matrix(8.33333,0,0,8.33333,0,0)">
            <g transform="matrix(1,0,0,1,280.961,895.399)">
                <path d="M0,3.159C-0.927,3.159 -1.618,2.469 -1.618,1.619C-1.618,0.69 -0.927,0 -0.079,0L0,0C0.848,0 1.539,0.69 1.539,1.539C1.539,2.469 0.848,3.159 0,3.159" style="fill:rgb(15,36,112);fill-rule:nonzero;"/>
            </g>
        </g>
        <g transform="matrix(8.33333,0,0,8.33333,0,0)">
            <g transform="matrix(1,0,0,1,261.935,930.833)">
                <path d="M0,18.48C-2.851,18.48 -9.527,18.48 -14.808,11.68C-14.843,11.635 -14.894,11.612 -14.934,11.572C-14.975,11.531 -14.998,11.48 -15.045,11.443C-15.073,11.421 -15.106,11.418 -15.135,11.399C-15.213,11.347 -15.293,11.312 -15.378,11.278C-15.457,11.248 -15.531,11.217 -15.613,11.202C-15.699,11.184 -15.784,11.184 -15.872,11.184C-15.956,11.184 -16.036,11.185 -16.118,11.201C-16.203,11.216 -16.281,11.248 -16.362,11.281C-16.445,11.313 -16.523,11.348 -16.599,11.397C-16.628,11.417 -16.663,11.421 -16.69,11.443C-16.737,11.48 -16.761,11.532 -16.802,11.573C-16.842,11.612 -16.893,11.635 -16.928,11.68C-22.208,18.48 -28.885,18.48 -31.736,18.48C-33.332,18.48 -37.191,17.632 -39.871,14.247C-37.361,15.129 -34.865,15.223 -32.843,14.436C-30.72,13.607 -29.272,11.829 -28.766,9.429C-28.603,8.656 -28.52,7.857 -28.44,7.085C-28.296,5.697 -28.16,4.385 -27.596,3.449C-26.007,0.809 -23.525,0.172 -21.723,0.101C-19.292,-0.008 -17.329,0.924 -16.961,1.441C-16.916,1.504 -16.85,1.542 -16.796,1.595C-16.744,1.647 -16.708,1.711 -16.646,1.755C-16.634,1.763 -16.619,1.764 -16.607,1.773C-16.524,1.827 -16.434,1.856 -16.342,1.89C-16.268,1.919 -16.198,1.958 -16.122,1.973C-16.044,1.988 -15.967,1.978 -15.888,1.979C-15.793,1.98 -15.701,1.99 -15.609,1.972C-15.541,1.959 -15.48,1.923 -15.414,1.899C-15.315,1.863 -15.217,1.832 -15.128,1.772C-15.116,1.764 -15.102,1.763 -15.089,1.755C-15.028,1.711 -14.994,1.649 -14.942,1.598C-14.887,1.543 -14.821,1.506 -14.774,1.441C-14.407,0.924 -12.435,0.024 -10.013,0.101C-8.211,0.17 -5.729,0.809 -4.141,3.449C-3.576,4.387 -3.439,5.699 -3.295,7.088C-3.216,7.859 -3.133,8.656 -2.97,9.429C-2.464,11.829 -1.016,13.607 1.108,14.436C3.13,15.225 5.625,15.131 8.136,14.247C5.455,17.632 1.596,18.48 0,18.48M12.159,9.978C11.692,9.629 11.054,9.622 10.579,9.959C7.66,12.037 4.325,12.81 2.084,11.936C0.795,11.432 -0.021,10.403 -0.344,8.875C-0.479,8.24 -0.55,7.546 -0.626,6.811C-0.794,5.192 -0.968,3.515 -1.841,2.065C-3.562,-0.795 -6.428,-2.446 -9.91,-2.58C-12.145,-2.684 -14.425,-2.082 -15.869,-1.121C-17.313,-2.08 -19.596,-2.677 -21.827,-2.58C-25.308,-2.446 -28.173,-0.795 -29.895,2.065C-30.767,3.515 -30.941,5.19 -31.109,6.809C-31.186,7.544 -31.258,8.238 -31.392,8.875C-31.714,10.403 -32.531,11.432 -33.82,11.936C-36.06,12.81 -39.396,12.037 -42.315,9.959C-42.789,9.624 -43.429,9.629 -43.895,9.978C-44.362,10.326 -44.551,10.936 -44.363,11.488C-41.649,19.425 -34.328,21.164 -31.736,21.164C-28.94,21.164 -21.779,21.157 -15.868,14.586C-9.957,21.157 -2.795,21.164 0,21.164C2.592,21.164 9.914,19.425 12.626,11.488C12.815,10.936 12.625,10.326 12.159,9.978" style="fill:rgb(15,36,112);fill-rule:nonzero;"/>
            </g>
        </g>
    </g>
</svg>
