<?xml version="1.0" encoding="UTF-8" standalone="no"?>
<!DOCTYPE svg PUBLIC "-//W3C//DTD SVG 1.1//EN" "http://www.w3.org/Graphics/SVG/1.1/DTD/svg11.dtd">
<svg width="100%" height="100%" viewBox="0 0 691 474" version="1.1" xmlns="http://www.w3.org/2000/svg" xmlns:xlink="http://www.w3.org/1999/xlink" xml:space="preserve" xmlns:serif="http://www.serif.com/" style="fill-rule:evenodd;clip-rule:evenodd;stroke-linejoin:round;stroke-miterlimit:2;">
    <g transform="matrix(1,0,0,1,-4321.66,-7405.87)">
        <g transform="matrix(8.33333,0,0,8.33333,0,0)">
            <g transform="matrix(1,0,0,1,545.259,942.708)">
                <path d="M0,-10.194C-2.811,-10.194 -5.097,-7.908 -5.097,-5.097C-5.097,-2.286 -2.811,0 0,0C2.811,0 5.097,-2.286 5.097,-5.097C5.097,-7.908 2.811,-10.194 0,-10.194M0,2.801C-4.354,2.801 -7.897,-0.742 -7.897,-5.097C-7.897,-9.452 -4.354,-12.995 0,-12.995C4.354,-12.995 7.897,-9.452 7.897,-5.097C7.897,-0.742 4.354,2.801 0,2.801" style="fill:rgb(15,36,112);fill-rule:nonzero;"/>
            </g>
        </g>
        <g transform="matrix(8.33333,0,0,8.33333,0,0)">
            <g transform="matrix(1,0,0,1,587.074,942.708)">
                <path d="M0,-10.194C-2.811,-10.194 -5.097,-7.908 -5.097,-5.097C-5.097,-2.286 -2.811,0 0,0C2.811,0 5.097,-2.286 5.097,-5.097C5.097,-7.908 2.811,-10.194 0,-10.194M0,2.801C-4.354,2.801 -7.897,-0.742 -7.897,-5.097C-7.897,-9.452 -4.354,-12.995 0,-12.995C4.354,-12.995 7.897,-9.452 7.897,-5.097C7.897,-0.742 4.354,2.801 0,2.801" style="fill:rgb(15,36,112);fill-rule:nonzero;"/>
            </g>
        </g>
        <g transform="matrix(8.33333,0,0,8.33333,0,0)">
            <g transform="matrix(1,0,0,1,577.1,931.827)">
                <path d="M0,2.801L-21.562,2.801C-22.335,2.801 -22.962,2.174 -22.962,1.401C-22.962,0.627 -22.335,0 -21.562,0L0,0C0.773,0 1.4,0.627 1.4,1.401C1.4,2.174 0.773,2.801 0,2.801" style="fill:rgb(15,36,112);fill-rule:nonzero;"/>
            </g>
        </g>
        <g transform="matrix(8.33333,0,0,8.33333,0,0)">
            <g transform="matrix(1,0,0,1,600,896.586)">
                <path d="M0,38.042L-3.271,38.042C-4.045,38.042 -4.672,37.415 -4.672,36.642C-4.672,35.868 -4.045,35.241 -3.271,35.241L-1.4,35.241L-1.4,11.386L-10.803,2.801L-27.658,2.801C-28.432,2.801 -29.059,2.174 -29.059,1.4C-29.059,0.627 -28.432,0 -27.658,0L-10.26,0C-9.91,0 -9.573,0.131 -9.315,0.366L0.944,9.734C1.234,10 1.4,10.375 1.4,10.769L1.4,36.642C1.4,37.415 0.773,38.042 0,38.042" style="fill:rgb(15,36,112);fill-rule:nonzero;"/>
            </g>
        </g>
        <g transform="matrix(8.33333,0,0,8.33333,0,0)">
            <g transform="matrix(1,0,0,1,572.342,888.704)">
                <path d="M0,45.924C-0.773,45.924 -1.4,45.297 -1.4,44.524L-1.4,1.401C-1.4,0.627 -0.773,0 0,0C0.773,0 1.4,0.627 1.4,1.401L1.4,44.524C1.4,45.297 0.773,45.924 0,45.924" style="fill:rgb(15,36,112);fill-rule:nonzero;"/>
            </g>
        </g>
        <g transform="matrix(8.33333,0,0,8.33333,0,0)">
            <g transform="matrix(1,0,0,1,572.342,888.704)">
                <path d="M0,2.801L-43.568,2.801C-44.342,2.801 -44.969,2.174 -44.969,1.401C-44.969,0.627 -44.342,0 -43.568,0L0,0C0.773,0 1.4,0.627 1.4,1.401C1.4,2.174 0.773,2.801 0,2.801" style="fill:rgb(15,36,112);fill-rule:nonzero;"/>
            </g>
        </g>
        <g transform="matrix(8.33333,0,0,8.33333,0,0)">
            <g transform="matrix(1,0,0,1,528.773,888.705)">
                <path d="M0,15.582C-0.773,15.582 -1.4,14.955 -1.4,14.182L-1.4,1.4C-1.4,0.627 -0.773,0 0,0C0.773,0 1.4,0.627 1.4,1.4L1.4,14.182C1.4,14.955 0.773,15.582 0,15.582" style="fill:rgb(15,36,112);fill-rule:nonzero;"/>
            </g>
        </g>
        <g transform="matrix(8.33333,0,0,8.33333,0,0)">
            <g transform="matrix(1,0,0,1,528.773,924.541)">
                <path d="M0,10.087C-0.773,10.087 -1.4,9.46 -1.4,8.687L-1.4,1.4C-1.4,0.627 -0.773,0 0,0C0.773,0 1.4,0.627 1.4,1.4L1.4,8.687C1.4,9.46 0.773,10.087 0,10.087" style="fill:rgb(15,36,112);fill-rule:nonzero;"/>
            </g>
        </g>
        <g transform="matrix(8.33333,0,0,8.33333,0,0)">
            <g transform="matrix(1,0,0,1,547.658,905.954)">
                <path d="M0,2.801L-21.115,2.801C-21.889,2.801 -22.516,2.174 -22.516,1.401C-22.516,0.627 -21.889,0 -21.115,0L0,0C0.773,0 1.4,0.627 1.4,1.401C1.4,2.174 0.773,2.801 0,2.801" style="fill:rgb(15,36,112);fill-rule:nonzero;"/>
            </g>
        </g>
        <g transform="matrix(8.33333,0,0,8.33333,0,0)">
            <g transform="matrix(1,0,0,1,544.535,911.902)">
                <path d="M0,2.801L-21.115,2.801C-21.889,2.801 -22.516,2.174 -22.516,1.401C-22.516,0.627 -21.889,0 -21.115,0L0,0C0.773,0 1.4,0.627 1.4,1.401C1.4,2.174 0.773,2.801 0,2.801" style="fill:rgb(15,36,112);fill-rule:nonzero;"/>
            </g>
        </g>
        <g transform="matrix(8.33333,0,0,8.33333,0,0)">
            <g transform="matrix(1,0,0,1,541.115,918.891)">
                <path d="M0,2.801L-21.115,2.801C-21.889,2.801 -22.516,2.174 -22.516,1.401C-22.516,0.627 -21.889,0 -21.115,0L0,0C0.773,0 1.4,0.627 1.4,1.401C1.4,2.174 0.773,2.801 0,2.801" style="fill:rgb(15,36,112);fill-rule:nonzero;"/>
            </g>
        </g>
        <g transform="matrix(8.33333,0,0,8.33333,0,0)">
            <g transform="matrix(1,0,0,1,579.69,906.524)">
                <path d="M0,12.481L12.48,12.481L12.48,5.719L6.801,0L0,0L0,12.481ZM13.881,15.282L-1.4,15.282C-2.174,15.282 -2.801,14.655 -2.801,13.881L-2.801,-1.401C-2.801,-2.174 -2.174,-2.801 -1.4,-2.801L7.384,-2.801C7.757,-2.801 8.114,-2.652 8.377,-2.387L14.874,4.156C15.135,4.418 15.281,4.773 15.281,5.142L15.281,13.881C15.281,14.655 14.654,15.282 13.881,15.282" style="fill:rgb(15,36,112);fill-rule:nonzero;"/>
            </g>
        </g>
    </g>
</svg>
