<?xml version="1.0" encoding="UTF-8" standalone="no"?>
<!DOCTYPE svg PUBLIC "-//W3C//DTD SVG 1.1//EN" "http://www.w3.org/Graphics/SVG/1.1/DTD/svg11.dtd">
<svg width="100%" height="100%" viewBox="0 0 597 537" version="1.1" xmlns="http://www.w3.org/2000/svg" xmlns:xlink="http://www.w3.org/1999/xlink" xml:space="preserve" xmlns:serif="http://www.serif.com/" style="fill-rule:evenodd;clip-rule:evenodd;stroke-linejoin:round;stroke-miterlimit:2;">
    <g transform="matrix(1,0,0,1,-7040.33,-7374.39)">
        <g transform="matrix(8.33333,0,0,8.33333,0,0)">
            <g transform="matrix(1,0,0,1,855.743,924.503)">
                <path d="M0,15.287L0.01,15.287L0,15.287ZM4.494,14.387C7.784,14.387 10.879,15.046 13.734,16.359C18.249,18.435 23.002,20.102 27.483,21.631C29.02,22.155 30.483,22.094 31.964,21.442C32.67,21.131 33.406,20.729 34.214,20.216C34.892,19.784 35.558,19.331 36.223,18.878C37.288,18.154 38.389,17.406 39.542,16.74C45.582,13.249 50.595,10.419 55.315,7.831C56.627,7.112 57.388,6.079 57.783,4.48C57.932,3.883 57.854,3.29 57.563,2.81C57.274,2.333 56.788,1.99 56.194,1.846C54.868,1.522 53.499,1.732 52.017,2.489C51.332,2.838 50.667,3.221 50.002,3.602L45.586,6.1C40.928,8.73 36.27,11.36 31.617,14.002C30.231,14.788 28.771,14.897 27.285,14.321C24.619,13.294 21.948,12.275 19.276,11.262C18.06,10.8 17.294,10.094 17,9.161C16.705,8.227 16.928,7.205 17.662,6.122C18.511,4.869 19.791,4.369 21.271,4.715C21.705,4.816 22.106,4.968 22.46,5.1L22.746,5.208C23.341,5.425 23.933,5.645 24.525,5.865C25.914,6.383 27.351,6.917 28.77,7.383C29.216,7.528 29.729,7.567 30.077,7.484C31.583,7.121 32.533,6.115 32.98,4.411C33.278,3.279 32.973,2.575 31.924,1.98C31.443,1.708 30.903,1.48 30.392,1.275C28.749,0.618 27.104,-0.03 25.46,-0.679C21.937,-2.067 18.297,-3.502 14.746,-5.009C11.766,-6.275 9.157,-6.65 6.535,-6.181C4.796,-5.872 2.972,-5.487 1.457,-4.482C0.344,-3.743 -0.094,-2.973 -0.055,-1.823C0.01,0.081 -0.005,2.006 -0.019,3.867C-0.024,4.663 -0.03,5.46 -0.03,6.256L-0.031,8.408L-0.028,14.781C1.516,14.518 3.024,14.387 4.494,14.387M29.508,24.782C28.537,24.782 27.56,24.615 26.579,24.281C22.029,22.728 17.199,21.035 12.564,18.902C8.947,17.239 4.857,16.785 0.413,17.547C-0.387,17.683 -1.296,17.741 -2.016,17.137C-2.731,16.534 -2.828,15.649 -2.829,14.864L-2.831,6.256C-2.831,5.453 -2.824,4.649 -2.818,3.846C-2.805,2.014 -2.791,0.118 -2.854,-1.728C-2.925,-3.84 -1.996,-5.551 -0.091,-6.815C1.871,-8.117 4.105,-8.594 6.045,-8.939C9.18,-9.495 12.385,-9.054 15.84,-7.587C19.357,-6.093 22.981,-4.665 26.486,-3.283C28.136,-2.634 29.786,-1.984 31.432,-1.324C32.035,-1.083 32.681,-0.811 33.307,-0.455C35.467,0.771 36.313,2.752 35.688,5.123C34.976,7.838 33.262,9.597 30.733,10.207C29.881,10.414 28.845,10.353 27.897,10.043C26.426,9.56 24.963,9.016 23.549,8.489C22.962,8.271 22.376,8.053 21.788,7.839L21.471,7.721C21.172,7.607 20.89,7.501 20.636,7.441C20.284,7.361 20.18,7.398 19.979,7.694C19.71,8.091 19.679,8.293 19.675,8.335L19.676,8.335C19.693,8.335 19.833,8.478 20.271,8.644C22.946,9.66 25.621,10.68 28.293,11.709C28.998,11.983 29.579,11.94 30.234,11.566C34.889,8.925 39.549,6.294 44.21,3.663L48.607,1.175C49.313,0.769 50.02,0.364 50.744,-0.005C52.821,-1.066 54.879,-1.357 56.857,-0.875C58.181,-0.552 59.281,0.242 59.958,1.36C60.637,2.481 60.83,3.828 60.502,5.153C59.918,7.511 58.662,9.189 56.661,10.286C51.959,12.863 46.965,15.684 40.942,19.164C39.878,19.779 38.867,20.467 37.797,21.194C37.108,21.662 36.42,22.13 35.718,22.577C34.789,23.168 33.931,23.635 33.093,24.005C31.916,24.522 30.717,24.782 29.508,24.782" style="fill:rgb(15,36,112);fill-rule:nonzero;"/>
            </g>
        </g>
        <g transform="matrix(8.33333,0,0,8.33333,0,0)">
            <g transform="matrix(1,0,0,1,850.237,939.34)">
                <path d="M0,-16.439C-0.632,-16.439 -1.267,-16.433 -1.901,-16.422C-2.438,-16.413 -2.592,-16.252 -2.592,-15.706C-2.598,-10.709 -2.599,-5.711 -2.592,-0.714C-2.592,-0.166 -2.445,-0.02 -1.884,-0.008C-0.67,0.017 0.545,0.009 1.759,-0.004C2.543,-0.011 2.643,-0.064 2.645,-0.933C2.65,-2.756 2.648,-4.578 2.647,-6.399L2.646,-8.222L2.647,-10.558C2.649,-12.29 2.651,-14.02 2.64,-15.752C2.637,-16.266 2.494,-16.411 1.979,-16.42C1.327,-16.433 0.665,-16.439 0,-16.439M-0.14,2.808C-0.74,2.808 -1.342,2.803 -1.942,2.79C-4.035,2.748 -5.389,1.373 -5.393,-0.71C-5.399,-5.71 -5.398,-10.709 -5.393,-15.709C-5.391,-17.774 -4.008,-19.186 -1.951,-19.221C-0.613,-19.245 0.728,-19.247 2.033,-19.219C4.057,-19.181 5.426,-17.794 5.44,-15.77C5.451,-14.032 5.449,-12.293 5.447,-10.555L5.446,-8.224L5.447,-6.401C5.448,-4.577 5.45,-2.751 5.445,-0.926C5.439,1.451 4.141,2.773 1.787,2.796C1.146,2.802 0.503,2.808 -0.14,2.808" style="fill:rgb(15,36,112);fill-rule:nonzero;"/>
            </g>
        </g>
        <g transform="matrix(8.33333,0,0,8.33333,0,0)">
            <g transform="matrix(1,0,0,1,898.094,921.879)">
                <path d="M0,-13.267C-3.658,-13.267 -6.634,-10.291 -6.634,-6.633C-6.634,-2.975 -3.658,0.001 0,0.001C3.658,0.001 6.634,-2.975 6.634,-6.633C6.634,-10.291 3.658,-13.267 0,-13.267M0,2.801C-5.202,2.801 -9.435,-1.431 -9.435,-6.633C-9.435,-11.835 -5.202,-16.068 0,-16.068C5.202,-16.068 9.435,-11.835 9.435,-6.633C9.435,-1.431 5.202,2.801 0,2.801" style="fill:rgb(15,36,112);fill-rule:nonzero;"/>
            </g>
        </g>
        <g transform="matrix(8.33333,0,0,8.33333,0,0)">
            <g transform="matrix(1,0,0,1,877.016,913.437)">
                <path d="M0,-12.451C-3.433,-12.451 -6.226,-9.658 -6.226,-6.225C-6.226,-2.793 -3.433,0 0,0C3.434,0 6.227,-2.793 6.227,-6.225C6.227,-9.658 3.434,-12.451 0,-12.451M0,2.801C-4.977,2.801 -9.026,-1.249 -9.026,-6.225C-9.026,-11.202 -4.977,-15.252 0,-15.252C4.978,-15.252 9.027,-11.202 9.027,-6.225C9.027,-1.249 4.978,2.801 0,2.801" style="fill:rgb(15,36,112);fill-rule:nonzero;"/>
            </g>
        </g>
        <g transform="matrix(8.33333,0,0,8.33333,0,0)">
            <g transform="matrix(1,0,0,1,893.031,901.704)">
                <path d="M0,-13.976C-3.854,-13.976 -6.987,-10.841 -6.987,-6.988C-6.987,-3.134 -3.854,0.001 0,0.001C3.854,0.001 6.988,-3.134 6.988,-6.988C6.988,-10.841 3.854,-13.976 0,-13.976M0,2.801C-5.396,2.801 -9.788,-1.59 -9.788,-6.988C-9.788,-12.385 -5.396,-16.777 0,-16.777C5.397,-16.777 9.789,-12.385 9.789,-6.988C9.789,-1.59 5.397,2.801 0,2.801" style="fill:rgb(15,36,112);fill-rule:nonzero;"/>
            </g>
        </g>
    </g>
</svg>
