<?xml version="1.0" encoding="UTF-8" standalone="no"?>
<!DOCTYPE svg PUBLIC "-//W3C//DTD SVG 1.1//EN" "http://www.w3.org/Graphics/SVG/1.1/DTD/svg11.dtd">
<svg width="100%" height="100%" viewBox="0 0 581 499" version="1.1" xmlns="http://www.w3.org/2000/svg" xmlns:xlink="http://www.w3.org/1999/xlink" xml:space="preserve" xmlns:serif="http://www.serif.com/" style="fill-rule:evenodd;clip-rule:evenodd;stroke-linejoin:round;stroke-miterlimit:2;">
    <g transform="matrix(1,0,0,1,-9626.25,-7393.06)">
        <g transform="matrix(8.33333,0,0,8.33333,0,0)">
            <g transform="matrix(1,0,0,1,1211.06,916.071)">
                <path d="M0,2.047C-2.865,3.744 -5.73,5.441 -8.587,7.151C-8.806,7.282 -9,7.348 -9.197,7.348C-9.38,7.348 -9.565,7.291 -9.773,7.178C-11.703,6.128 -13.639,5.092 -15.575,4.056L-17.68,2.929C-17.758,2.888 -17.832,2.839 -17.931,2.776L-18.301,2.541L-16.889,1.7C-16.077,1.217 -15.283,0.744 -14.489,0.274L-10.884,-1.864C-7.325,-3.973 -3.768,-6.082 -0.217,-8.203C0.334,-8.53 0.754,-8.546 1.281,-8.254C3.159,-7.219 5.082,-6.188 6.94,-5.193C7.668,-4.804 8.395,-4.414 9.121,-4.023C9.188,-3.987 9.252,-3.946 9.327,-3.896L9.664,-3.683L0,2.047ZM-20.537,0.763C-20.714,0.867 -20.885,0.954 -21.083,0.954C-21.218,0.954 -21.365,0.914 -21.536,0.813C-26.457,-2.121 -31.385,-5.041 -36.362,-7.99L-39.993,-10.141L-38.176,-11.103C-36.604,-11.936 -35.06,-12.755 -33.513,-13.57L-32.067,-14.332C-28.655,-16.13 -25.127,-17.99 -21.644,-19.794C-21.336,-19.955 -20.825,-19.96 -20.528,-19.806C-15.228,-17.04 -9.851,-14.205 -4.65,-11.464L-2.591,-10.378C-2.544,-10.353 -2.512,-10.318 -2.475,-10.277C-2.458,-10.259 -2.438,-10.236 -2.412,-10.21L-2.277,-10.073L-3.162,-9.548C-4.452,-8.781 -5.735,-8.018 -7.02,-7.258L-10.194,-5.375C-13.643,-3.33 -17.091,-1.285 -20.537,0.763M-25.771,3.622C-28.088,4.862 -30.277,6.033 -32.513,7.21C-32.636,7.275 -32.811,7.315 -32.981,7.315C-33.122,7.315 -33.261,7.288 -33.365,7.226C-38.847,4 -44.435,0.691 -49.837,-2.51L-51.86,-3.707L-45.718,-7.011C-45.501,-7.128 -45.284,-7.247 -45.067,-7.365C-44.457,-7.699 -43.826,-8.045 -43.186,-8.347C-42.905,-8.479 -42.453,-8.463 -42.195,-8.31C-36.803,-5.142 -31.331,-1.901 -26.04,1.234L-24.69,2.033C-24.562,2.109 -24.438,2.194 -24.293,2.294L-23.849,2.595L-25.771,3.622ZM-48.348,-15.515L-49.467,-16.271C-49.517,-16.306 -49.543,-16.349 -49.571,-16.394C-49.584,-16.414 -49.599,-16.438 -49.619,-16.467L-49.719,-16.609L-43.246,-19.848C-39.446,-21.745 -35.518,-23.707 -31.662,-25.652C-31.095,-25.939 -30.641,-26.024 -30,-25.601C-28.585,-24.677 -27.17,-23.811 -25.671,-22.895C-25.113,-22.555 -24.553,-22.212 -23.988,-21.864L-23.765,-21.725L-38.474,-13.977C-38.866,-13.77 -39.259,-13.561 -39.651,-13.352C-40.485,-12.909 -41.347,-12.449 -42.205,-12.016C-42.331,-11.952 -42.534,-11.896 -42.729,-11.896C-42.857,-11.896 -42.983,-11.922 -43.079,-11.985C-44.846,-13.146 -46.626,-14.35 -48.348,-15.515M-16.922,-22.625C-15.155,-23.726 -13.485,-24.766 -11.775,-25.81C-11.573,-25.934 -11.201,-25.988 -10.969,-25.875C-5.75,-23.278 -0.539,-20.667 4.716,-18.034L7.701,-16.539L5.993,-15.38C4.969,-14.683 3.958,-13.997 2.945,-13.312C2.804,-13.217 2.662,-13.119 2.521,-13.022C2.051,-12.698 1.563,-12.362 1.057,-12.075C0.898,-11.985 0.667,-11.927 0.45,-11.927C0.315,-11.927 0.187,-11.95 0.085,-12.003C-5.031,-14.681 -10.238,-17.431 -15.275,-20.09L-18.369,-21.724L-16.922,-22.625ZM12.966,-2.519C13.49,-2.831 13.789,-3.284 13.786,-3.762C13.782,-4.248 13.47,-4.706 12.928,-5.018C12.694,-5.152 12.456,-5.279 12.219,-5.407L3.229,-10.232L3.576,-10.492C3.691,-10.579 3.793,-10.655 3.897,-10.726C6.175,-12.264 8.452,-13.801 10.731,-15.336C11.393,-15.781 11.74,-16.294 11.709,-16.779C11.678,-17.27 11.26,-17.741 10.532,-18.105L5.58,-20.581C0.362,-23.189 -5.032,-25.887 -10.329,-28.56C-11.179,-28.988 -11.853,-28.954 -12.656,-28.442C-14.046,-27.555 -15.472,-26.671 -16.85,-25.817C-18.033,-25.084 -19.217,-24.349 -20.393,-23.605C-20.885,-23.295 -21.271,-23.297 -21.77,-23.611C-23.306,-24.585 -24.878,-25.559 -26.397,-26.503C-27.513,-27.195 -28.629,-27.888 -29.74,-28.585C-30.354,-28.97 -30.902,-29.004 -31.52,-28.696C-34.829,-27.038 -38.14,-25.384 -41.45,-23.728C-45.258,-21.825 -49.065,-19.923 -52.87,-18.015C-53.479,-17.711 -53.832,-17.276 -53.865,-16.794C-53.897,-16.31 -53.605,-15.833 -53.044,-15.448C-52.276,-14.923 -51.505,-14.405 -50.732,-13.889L-45.335,-10.253L-48.207,-8.711C-50.461,-7.501 -52.686,-6.307 -54.915,-5.123C-55.6,-4.76 -55.898,-4.367 -55.914,-3.809C-55.93,-3.245 -55.653,-2.837 -54.99,-2.444C-47.901,1.74 -40.968,5.837 -34.081,9.942C-33.339,10.383 -32.719,10.406 -32.008,10.02C-29.577,8.697 -27.099,7.369 -24.701,6.084L-23.021,5.185C-22.936,5.139 -22.845,5.116 -22.756,5.095C-22.718,5.085 -22.678,5.075 -22.638,5.064L-22.444,5.006L-22.444,27.406L-22.638,27.348C-22.694,27.331 -22.741,27.318 -22.782,27.307C-22.869,27.283 -22.932,27.266 -22.989,27.237L-27.2,25.121C-31.726,22.848 -36.251,20.573 -40.783,18.314C-41.291,18.06 -41.478,17.758 -41.473,17.2C-41.445,14.636 -41.455,12.083 -41.463,9.614C-41.467,8.665 -41.913,8.066 -42.658,8.011C-42.711,8.007 -42.763,8.005 -42.813,8.005C-43.183,8.005 -43.484,8.111 -43.711,8.321C-44.008,8.596 -44.165,9.044 -44.166,9.617C-44.169,10.757 -44.168,11.896 -44.167,13.035C-44.165,14.836 -44.163,16.636 -44.177,18.437C-44.182,19.246 -43.857,19.771 -43.125,20.137C-35.417,23.982 -28.483,27.452 -21.928,30.746C-21.321,31.051 -20.784,31.051 -20.188,30.746C-18.951,30.114 -17.708,29.493 -16.465,28.873L-10.784,26.026C-6.896,24.074 -3.009,22.124 0.883,20.183C1.68,19.784 2.006,19.367 2.009,18.743L2.01,18.458C2.022,15.483 2.035,12.406 2.005,9.382C2,8.924 1.83,8.534 1.527,8.285C1.222,8.034 0.809,7.942 0.356,8.026C-0.296,8.147 -0.687,8.753 -0.688,9.648C-0.694,12.157 -0.7,14.752 -0.681,17.303C-0.678,17.795 -0.835,18.058 -1.263,18.271C-5.693,20.478 -10.118,22.695 -14.543,24.914L-18.565,26.931C-18.756,27.026 -18.948,27.116 -19.149,27.209L-19.684,27.461L-19.684,4.905L-19.22,5.147C-19.075,5.221 -18.947,5.287 -18.819,5.356C-18.038,5.775 -17.255,6.191 -16.472,6.607C-14.465,7.674 -12.391,8.776 -10.374,9.905C-9.482,10.405 -8.741,10.377 -7.813,9.812C-5.472,8.384 -3.07,6.968 -0.747,5.599C0.115,5.09 0.979,4.581 1.84,4.071L5.166,2.103C7.767,0.564 10.367,-0.975 12.966,-2.519" style="fill:rgb(15,36,112);fill-rule:nonzero;"/>
            </g>
        </g>
    </g>
</svg>
